<svg width="150" height="150" viewBox="0 0 150 150" fill="none" xmlns="http://www.w3.org/2000/svg">
<circle cx="75" cy="75" r="75" fill="white"/>
<mask id="mask0_396_13678" style="mask-type:alpha" maskUnits="userSpaceOnUse" x="0" y="0" width="150" height="150">
<circle cx="75" cy="75" r="75" fill="#D9D9D9"/>
</mask>
<g mask="url(#mask0_396_13678)">
<path d="M35.2 35.5002C35.2 35.5002 37.6999 33.2002 42.3999 37.3002L44.5999 33.9002C44.5999 34.0002 39.3 29.8002 35.2 35.5002Z" fill="#6078BA"/>
<path d="M43.9 25.6001C43.9 25.6001 41 29.2001 45.2 33.4001L42.4 36.3001C42.3 36.2001 35.8 28.2001 43.9 25.6001Z" fill="#6078BA"/>
<path d="M31.9 123.7C37 115.8 45.1 113.6 45.1 113.6L64.4 106.4H82.9L102.2 113.6C102.2 113.6 110.3 115.8 115.4 123.7H31.9Z" fill="#B6E1F8"/>
<path d="M98.9 161.3H128.8C128.8 156.2 128.5 148.9 128.5 148.9C126.7 118.3 104.5 113.5 104.5 113.5C87.1 109.3 96.6 136.2 96.6 136.2C96 142.7 97 151.4 98.9 161.3Z" fill="#58C3E7"/>
<path d="M86.3 88.3H61V113H86.3V88.3Z" fill="#B6E1F8"/>
<path d="M86.3 99.7V88.2H61V93.8999C68.2 99.9999 76.9 100.7 86.3 99.7Z" fill="#83D0F3"/>
<path d="M113.3 161.3C113.8 148 113.6 144.3 113.5 139.8C113.2 129.7 111.1 121.1 104.4 113.6L86.2999 107.7C86.2999 107.7 90.0999 114.4 73.4999 114.4C73.4999 114.4 62.5999 114 60.9999 107.7L42.5999 113.6C42.5999 113.6 26.9 117.5 24.2 134L33.3999 151L33.0999 161.4H113.3V161.3Z" fill="#6078BA"/>
<path d="M106 57.3999C106.7 51.6999 105.5 46.2999 105.6 40.6999C105.6 36.8999 104.9 31.2999 100.2 30.7999C93.7 30.0999 91.7 41.2999 91.3 46.1999C90.8 52.8999 92.4 60.0999 93.7 66.5999C94.2 68.9999 94.1 73.6999 96.8 74.7999C99.1 75.7999 101.4 73.4999 102.6 71.7999C105.4 67.5999 105.4 62.0999 106 57.3999Z" fill="#6078BA"/>
<path d="M101.2 84.7999C98.6 94.7999 94.1 97.5999 94.1 97.5999L88 98.7999C84.5 98.3999 78.5 96.8999 78.5 96.8999C64.7 92.1999 60.7 90.8999 58.5 85.6999C58.4 85.4999 47.6 47.9999 47.6 47.9999C46 28.6999 66.2 24.6999 69.2 24.0999C72.2 23.3999 91.5 18.0999 97.1 36.5999C97.2 36.5999 105.6 58.0999 101.2 84.7999Z" fill="#B6E1F8"/>
<path d="M107.6 18C108.7 24 107.7 32.3 103 36.1C98 40.3 93.6 39.1 87.6 40.5C81.3 41.9 74.8 42.5 68.5 43.7C64.1 44.6 58.9 45.1 56.9 49.8C54.2 56 53.7 64.1 55.5 70.2C57 75.3 57.5 80.2 59.1 86.7C53.4 82 48.9 75 48.9 75C46 70 46 70 42.8 61.2C40.9 56.1 39.3 51.6 39 46.3C38.7 39.5 42 36.5 45.6 30.3C49 24.4 53.8 20.3 60.1 18.5C60.1 18.5 91.8 20.3 91.2 13C91.2 13 98.8 14.9 97.4 20C97.4 20 105.4 18.5 103.7 13C103.7 13 106.9 14.5 107.6 18Z" fill="#6078BA"/>
<path d="M56.7 68.8C56.7 68.8 53.3 61.4 47.9 65.8C47.9 65.8 45.5 67.7 48.5 72.7C48.5 72.7 52.9 79.9 58.1 75.9L56.7 68.8Z" fill="#B6E1F8"/>
<path d="M56.2 51.3999C56.2 51.3999 56.2 64.6999 58.7 71.7999L56.1 72.2999C56.1 72.2999 54.7 63.1999 50 63.0999L56.2 51.3999Z" fill="#6078BA"/>
<path d="M49.9 161.3H22C22 161.3 22.1 154.7 22.1 154.2C22.3 147.7 22.7 141.1 23.9 134.7C25.6 125.5 30 117.4 39.9 115C44.4 113.9 48.4 116.7 50.8 120.3C50.7 120.4 55.2 125.8 49.9 161.3Z" fill="#58C3E7"/>
</g>
</svg>
