<svg width="150" height="150" viewBox="0 0 150 150" fill="none" xmlns="http://www.w3.org/2000/svg">
<circle cx="75" cy="75" r="75" fill="white"/>
<mask id="mask0_398_13698" style="mask-type:alpha" maskUnits="userSpaceOnUse" x="0" y="0" width="150" height="150">
<circle cx="75" cy="75" r="75" fill="#D9D9D9"/>
</mask>
<g mask="url(#mask0_398_13698)">
<path d="M93.214 19.0103C93.214 19.0103 116.514 26.0103 114.314 62.9103V142.51H87.814L93.214 19.0103Z" fill="#6078BA"/>
<path d="M95.8141 42.9104V157.21H45.1141V60.9104C45.1141 60.9104 41.8141 24.0104 66.0141 19.4104C66.0141 19.4104 95.8141 14.0104 95.8141 42.9104Z" fill="#6078BA"/>
<path d="M61.814 116.11H97.114V133.61H61.814V116.11Z" fill="#B6E1F8"/>
<path d="M23.014 162.41H46.914L51.214 145.21C51.214 145.21 54.714 119.11 36.714 118.71C36.714 118.71 27.414 125.21 24.914 140.61C24.814 140.51 22.814 152.81 23.014 162.41Z" fill="#B6E1F8"/>
<path d="M105.814 162.41L102.614 149.41C102.614 149.41 96.914 120.41 114.814 120.01C114.814 120.01 127.814 130.71 126.814 162.41H105.814Z" fill="#B6E1F8"/>
<path d="M66.0141 80.8103H87.8141V112.71H66.0141V80.8103Z" fill="#B6E1F8"/>
<path d="M66.0141 93.8103V80.8103H87.8141V99.5103C80.6141 99.4103 72.1141 98.1103 66.0141 93.8103Z" fill="#83D0F3"/>
<path d="M116.614 122.91C111.714 115.31 104.014 113.31 104.014 113.31L85.614 106.51H68.114L45.614 113.31C45.614 113.31 37.914 115.31 33.014 122.91H116.614Z" fill="#B6E1F8"/>
<path d="M112.114 148.71V162.31H41.514L42.314 146.51C43.214 116.01 39.814 116.01 39.814 116.01C43.014 113.91 45.614 113.21 45.614 113.21L63.314 108.21C63.314 108.21 67.114 124.71 81.814 124.71C81.814 124.71 93.114 118.61 90.014 108.01L104.014 113.21C104.014 113.21 109.614 114.91 114.714 119.91C114.814 120.01 112.314 121.51 112.114 148.71Z" fill="#58C3E7"/>
<path d="M63.714 83.4103C64.414 85.1103 65.514 86.7103 66.914 88.1103C70.514 91.6103 74.714 94.4103 79.414 96.3103C85.114 98.6103 93.714 98.9103 98.214 94.2103C101.914 90.4103 103.914 84.6103 105.514 79.7103C108.614 70.1103 108.614 59.6103 107.814 49.7103C107.614 47.4103 107.414 45.2103 107.014 42.9103C103.514 21.2103 84.914 21.2103 84.914 21.2103C70.914 20.6103 58.014 27.2103 55.914 42.0103C55.114 47.7103 56.214 53.8103 56.414 59.4103C56.614 63.6103 57.114 67.7103 58.514 71.7103C59.714 75.8103 62.014 79.5103 63.714 83.4103Z" fill="#B6E1F8"/>
<path d="M61.8141 66.8104C61.8141 66.8104 59.9141 59.1104 54.0141 62.3104C54.0141 62.3104 51.3141 63.7104 53.2141 69.0104C53.2141 69.0104 56.0141 76.6104 61.8141 73.8104V66.8104Z" fill="#B6E1F8"/>
<path d="M109.114 45.4103C110.114 15.6103 81.814 17.0103 81.814 17.0103C54.014 18.1103 52.614 30.8103 52.614 30.8103C49.214 46.8103 54.114 62.3103 54.114 62.3103C60.014 61.0103 61.014 68.9103 61.014 68.9103C60.414 56.2103 61.414 55.5103 61.414 55.5103C70.414 55.4103 76.914 54.4103 76.914 54.4103L77.314 45.6103L79.514 54.0103C79.514 54.0103 92.314 53.7103 105.614 50.6103C105.614 50.6103 109.114 50.8103 109.114 61.6103V45.4103Z" fill="#6078BA"/>
</g>
</svg>
