<svg width="30" height="30" viewBox="0 0 30 30" fill="none" xmlns="http://www.w3.org/2000/svg">
<g clip-path="url(#clip0_909_13555)">
<path d="M19.5504 8.50126C19.5592 8.23606 19.3912 8.42391 19.3559 8.22721C19.3227 8.03051 19.0929 8.15646 19.1194 8.03051C19.1481 7.90236 18.9779 7.71891 18.8564 7.90236C18.737 8.08356 18.4232 8.55211 18.4232 8.55211C18.4232 8.55211 18.4055 8.51231 18.379 8.44601C18.3525 8.38191 18.4055 8.16976 18.3149 8.01506C18.2243 7.86036 18.0497 7.91561 18.0519 7.97971C18.0541 8.04381 18.0519 8.27806 18.0585 8.32446C18.0674 8.37086 18.0607 8.65376 18.0585 8.76871C18.0563 8.88581 18.2729 9.42066 18.2729 9.42066C18.2729 9.42066 18.0497 9.61516 17.8574 9.77426H17.8552C17.7491 9.86046 17.6541 9.93561 17.6077 9.96211C17.4751 10.0373 17.1016 10.1058 17.1016 10.1058C17.1016 10.1058 17.106 10.024 17.1148 9.90246C17.1237 9.74556 17.1369 9.52011 17.1524 9.31456C17.1789 8.95211 17.1104 8.49906 16.9778 8.27586C16.9623 7.44486 16.5115 7.61946 16.4761 7.03601C16.4341 6.65366 16.0164 6.51446 16.0164 6.51446C16.0164 6.51446 15.9898 6.39291 16.0584 6.33986C16.1247 6.28461 16.3855 6.35536 16.5822 6.23821C16.7789 6.12326 16.7744 5.94206 16.7236 5.84261C16.6728 5.74536 16.8032 5.78956 16.8452 5.68571C16.8871 5.58186 16.77 5.40726 16.77 5.40726C16.77 5.40726 16.8452 5.26801 16.812 5.19066C16.7789 5.11331 16.6507 5.01826 16.7258 4.99176C16.801 4.96526 16.8496 4.84591 16.8452 4.79506C16.8407 4.74421 16.6197 4.58951 16.3877 4.48786C16.1556 4.38621 16.4827 4.19171 16.339 4.01271C16.2838 3.95081 16.2617 3.71876 16.0208 3.46241C15.7821 3.20606 15.1765 3.02041 14.456 3.12206C13.7356 3.22151 13.3554 4.30666 13.3952 4.81056C13.4328 5.31446 14.0295 5.74101 14.0847 5.88026C14.1378 6.01951 14.1311 6.37531 14.1311 6.37531C13.6096 6.65376 13.4416 7.25051 13.3709 7.38311C13.3024 7.51571 13.046 7.63946 12.6858 7.98646C12.3233 8.33566 11.4879 8.36656 10.2878 9.54456C10.0248 9.80756 9.99389 9.83851 10.1265 10.1324C10.2281 10.3623 10.2458 10.6606 10.6458 11.3192C10.6856 11.3855 10.7298 11.4562 10.7784 11.5314C10.869 11.6684 10.9729 11.8187 11.0945 11.9844C11.1276 12.0331 11.1674 12.0905 11.2116 12.1546C11.2558 12.2209 11.3066 12.2939 11.3574 12.369C11.5784 12.7005 11.8171 13.085 11.8458 13.2243C11.8834 13.4254 12.069 13.9691 12.1464 14.0619C12.1796 14.0995 12.2503 14.2012 12.3232 14.3095C13.2161 14.1437 14.1399 13.9581 15.0814 13.7592C15.7002 13.6288 16.2947 13.4962 16.8693 13.3658C16.8737 13.2133 16.8516 13.0365 16.7853 12.8287C16.6837 12.4928 16.8737 12.6121 16.9467 12.0066C16.9776 11.7834 16.9157 11.8099 17.2959 11.6441C17.5434 11.5358 17.718 11.3767 18.0583 10.9524C18.1246 10.8684 18.1998 10.7734 18.2815 10.6651C18.423 10.4794 18.5887 10.2584 18.7898 9.99321C18.8517 9.90921 18.9335 9.89596 19.044 9.82966C19.1257 9.77881 19.223 9.70146 19.3357 9.54016C19.4285 9.40976 19.5324 9.22411 19.6474 8.95891C19.7471 8.69136 19.5438 8.76871 19.5504 8.50126ZM13.3799 12.8286C13.3799 12.8286 13.1788 13.1093 13.0307 13.3789C13.0307 13.3789 12.7633 13.0651 12.3898 12.822C12.3544 12.791 12.2108 12.5744 12.034 12.2076C12.0008 12.1391 11.9655 12.0639 11.9323 11.9821C11.8461 11.7898 11.7555 11.5622 11.6671 11.3081C11.6406 11.2351 11.6163 11.1578 11.592 11.0782C11.4992 10.7799 11.4108 10.4506 11.3378 10.0903C11.3113 9.84056 11.497 9.91791 11.9368 9.74776C12.3744 9.57756 12.6595 9.34996 13.1391 9.19526C13.1391 9.19526 13.2186 10.2185 13.2186 10.6893C13.2186 10.7246 13.2164 10.7556 13.2164 10.7843C13.2142 10.8285 13.2164 10.8794 13.2186 10.939C13.2253 11.1357 13.254 11.4053 13.2827 11.6683V11.6705C13.2916 11.7545 13.3026 11.8363 13.3115 11.9136C13.3468 12.2142 13.38 12.4684 13.38 12.5347C13.3799 12.6894 13.3799 12.8286 13.3799 12.8286Z" fill="white"/>
<path d="M18.9803 15.2886C18.8786 15.3151 18.777 15.3417 18.6753 15.366C18.7637 15.4257 18.8476 15.4875 18.9316 15.5494C20.0455 16.3539 20.8079 17.1363 20.987 17.2932C21.219 17.4943 21.3981 17.8965 21.25 18.1595C21.1042 18.4225 21.0423 18.827 21.018 18.9507C20.9959 19.0745 19.8952 21.9321 19.6941 22.4294C19.493 22.9244 19.4157 23.5211 19.4687 23.6604C19.524 23.7996 20.0079 24.6505 20.1693 24.8052C20.3284 24.9599 21.0158 25.0682 21.0843 25.1919C21.1506 25.3157 21.208 25.74 20.7572 25.8483C19.482 26.0185 19.3383 25.3886 18.5979 25.3886C17.8598 25.3886 17.2255 25.1411 17.1326 24.7786C17.1326 24.7786 17.2144 24.288 17.6166 23.9056C18.0211 23.5233 18.1183 23.6006 18.1183 23.6006C18.1183 23.6006 18.8874 21.5077 18.9891 20.9795C19.0885 20.4535 19.126 19.4479 19.4973 18.5086C17.8818 17.4389 17.2696 18.0357 15.7977 17.1759L15.5414 17.0522C15.5414 17.0522 14.9513 17.5384 14.6684 17.5936C13.402 19.1893 12.3588 19.9032 12.1843 20.0999C12.0075 20.2944 11.8749 20.8645 11.4616 21.0193C9.9322 21.5254 9.24045 22.6083 7.28675 23.5586C6.8867 23.7619 6.47565 24.1863 6.4226 24.3034C6.36735 24.4206 6.36735 24.6283 6.2524 24.7764C6.1353 24.9222 5.8568 25.4504 5.8568 25.7223C5.8568 25.9919 6.22145 26.7212 5.9496 26.8516C5.67775 26.9842 4.74955 26.9378 4.49315 25.9919C4.23675 25.0482 4.5241 25.2095 4.23675 24.4581C3.95165 23.7066 4.0754 23.1873 4.23675 22.9331C4.4003 22.6768 5.44565 22.9243 5.5849 23.1188C5.65565 23.1961 5.70865 23.2492 5.70865 23.2492C5.70865 23.2492 6.89545 22.4955 7.37945 22.0204C7.86565 21.5452 8.78505 20.3208 10.6592 19.3926C10.6592 19.3926 11.2073 18.1439 12.0759 16.9969C12.1466 16.9018 12.2217 16.8068 12.2969 16.714C12.1775 16.7361 12.0582 16.756 11.9388 16.7758C5.34855 17.8678 0.280852 17.8302 0.0112016 16.5616C-0.253998 15.3129 4.217 13.2642 10.5312 11.5978C10.6306 11.7547 10.75 11.9293 10.8936 12.1238C10.9157 12.1569 10.9378 12.1879 10.9599 12.2188C6.01375 13.441 2.50195 14.7029 2.6257 15.2886C2.7561 15.9008 6.83365 15.5759 12.2086 14.5792C12.2948 14.5637 12.3832 14.5482 12.4694 14.5306C13.3291 14.3692 14.2198 14.1924 15.1325 13.9979C15.7138 13.8742 16.2862 13.7482 16.8431 13.6222C16.9293 13.6023 17.0155 13.5824 17.0995 13.5625C22.8943 12.2276 27.2216 10.7469 27.0846 10.0971C26.963 9.5269 23.4424 9.7678 18.6355 10.6032C18.7062 10.5082 18.7835 10.4065 18.8653 10.2982L18.9869 10.1369C18.9935 10.1302 19.0222 10.1148 19.051 10.1015C19.1814 10.0374 19.3183 9.95565 19.4686 9.7656C25.3629 8.90365 29.7388 9.0186 29.9886 10.1966C30.2627 11.4807 25.5508 13.6001 18.9803 15.2886Z" fill="white"/>
</g>
<defs>
<clipPath id="clip0_909_13555">
<rect width="30" height="30" fill="white"/>
</clipPath>
</defs>
</svg>
