<svg width="24" height="24" viewBox="0 0 24 24" fill="none" xmlns="http://www.w3.org/2000/svg">
<g clip-path="url(#clip0_943_13558)">
<path d="M15.6404 6.80111C15.6475 6.58895 15.5131 6.73923 15.4848 6.58187C15.4583 6.42451 15.2744 6.52527 15.2956 6.42451C15.3186 6.32199 15.1825 6.17523 15.0852 6.32199C14.9897 6.46695 14.7387 6.84179 14.7387 6.84179C14.7387 6.84179 14.7245 6.80995 14.7033 6.75691C14.6821 6.70563 14.7245 6.53591 14.652 6.41215C14.5795 6.28839 14.4399 6.33259 14.4416 6.38387C14.4434 6.43515 14.4416 6.62255 14.4469 6.65967C14.454 6.69679 14.4487 6.92311 14.4469 7.01507C14.4452 7.10875 14.6185 7.53663 14.6185 7.53663C14.6185 7.53663 14.4399 7.69223 14.2861 7.81951H14.2843C14.1994 7.88847 14.1234 7.94859 14.0863 7.96979C13.9802 8.02991 13.6814 8.08471 13.6814 8.08471C13.6814 8.08471 13.6849 8.01931 13.692 7.92207C13.6991 7.79655 13.7097 7.61619 13.722 7.45175C13.7432 7.16179 13.6884 6.79935 13.5823 6.62079C13.57 5.95599 13.2093 6.09567 13.181 5.62891C13.1474 5.32303 12.8132 5.21167 12.8132 5.21167C12.8132 5.21167 12.792 5.11443 12.8468 5.07199C12.8999 5.02779 13.1085 5.08439 13.2659 4.99067C13.4232 4.89871 13.4197 4.75375 13.379 4.67419C13.3383 4.59639 13.4427 4.63175 13.4763 4.54867C13.5098 4.46559 13.4161 4.32591 13.4161 4.32591C13.4161 4.32591 13.4763 4.21451 13.4497 4.15263C13.4232 4.09075 13.3207 4.01471 13.3808 3.99351C13.4409 3.97231 13.4798 3.87683 13.4763 3.83615C13.4727 3.79547 13.2959 3.67171 13.1103 3.59039C12.9246 3.50907 13.1863 3.35347 13.0713 3.21027C13.0271 3.16075 13.0095 2.97511 12.8167 2.77003C12.6258 2.56495 12.1413 2.41643 11.5649 2.49775C10.9886 2.57731 10.6845 3.44543 10.7163 3.84855C10.7463 4.25167 11.2237 4.59291 11.2679 4.70431C11.3103 4.81571 11.305 5.10035 11.305 5.10035C10.8878 5.32311 10.7534 5.80051 10.6968 5.90659C10.642 6.01267 10.4369 6.11167 10.1487 6.38927C9.85877 6.66863 9.19045 6.69335 8.23037 7.63575C8.01997 7.84615 7.99521 7.87091 8.10129 8.10603C8.18261 8.28991 8.19677 8.52859 8.51677 9.05547C8.54861 9.10851 8.58397 9.16507 8.62285 9.22519C8.69533 9.33479 8.77845 9.45503 8.87569 9.58763C8.90221 9.62655 8.93405 9.67247 8.96937 9.72379C9.00473 9.77683 9.04541 9.83519 9.08605 9.89527C9.26285 10.1605 9.45381 10.4681 9.47677 10.5795C9.50685 10.7404 9.65533 11.1753 9.71725 11.2496C9.74377 11.2797 9.80033 11.361 9.85869 11.4477C10.573 11.3151 11.312 11.1665 12.0652 11.0074C12.5603 10.9031 13.0359 10.797 13.4956 10.6927C13.4991 10.5707 13.4814 10.4293 13.4284 10.2631C13.3471 9.99431 13.4991 10.0898 13.5575 9.60535C13.5822 9.42679 13.5327 9.44799 13.8368 9.31539C14.0349 9.22875 14.1745 9.10147 14.4468 8.76199C14.4998 8.69479 14.5599 8.61879 14.6253 8.53215C14.7385 8.38363 14.8711 8.20683 15.032 7.99467C15.0815 7.92747 15.1469 7.91687 15.2353 7.86383C15.3007 7.82315 15.3785 7.76127 15.4687 7.63223C15.5429 7.52791 15.6261 7.37939 15.718 7.16723C15.7978 6.95319 15.6351 7.01507 15.6404 6.80111ZM10.704 10.263C10.704 10.263 10.5431 10.4875 10.4247 10.7032C10.4247 10.7032 10.2107 10.4521 9.91193 10.2577C9.88365 10.2329 9.76873 10.0596 9.62729 9.76615C9.60077 9.71135 9.57249 9.65123 9.54597 9.58579C9.47701 9.43195 9.40453 9.24987 9.33381 9.04655C9.31261 8.98819 9.29317 8.92631 9.27369 8.86267C9.19945 8.62399 9.12873 8.36055 9.07037 8.07235C9.04917 7.87255 9.19769 7.93443 9.54953 7.79831C9.89961 7.66215 10.1277 7.48007 10.5114 7.35631C10.5114 7.35631 10.575 8.17491 10.575 8.55151C10.575 8.57979 10.5733 8.60455 10.5733 8.62755C10.5715 8.66291 10.5733 8.70359 10.575 8.75131C10.5803 8.90867 10.6033 9.12435 10.6263 9.33475V9.33651C10.6334 9.40371 10.6422 9.46911 10.6493 9.53099C10.6776 9.77143 10.7041 9.97479 10.7041 10.0278C10.704 10.1516 10.704 10.263 10.704 10.263Z" fill="white"/>
<path d="M15.1842 12.2308C15.1029 12.252 15.0215 12.2732 14.9402 12.2927C15.0109 12.3404 15.0781 12.3899 15.1453 12.4394C16.0364 13.083 16.6463 13.7089 16.7896 13.8344C16.9752 13.9953 17.1184 14.3171 17 14.5275C16.8833 14.7379 16.8338 15.0615 16.8143 15.1605C16.7967 15.2595 15.9162 17.5456 15.7553 17.9434C15.5944 18.3394 15.5325 18.8168 15.5749 18.9282C15.6191 19.0396 16.0063 19.7203 16.1354 19.844C16.2627 19.9678 16.8126 20.0544 16.8674 20.1534C16.9204 20.2524 16.9664 20.5919 16.6057 20.6785C15.5855 20.8147 15.4706 20.3108 14.8783 20.3108C14.2878 20.3108 13.7803 20.1127 13.7061 19.8228C13.7061 19.8228 13.7715 19.4303 14.0933 19.1244C14.4168 18.8185 14.4946 18.8804 14.4946 18.8804C14.4946 18.8804 15.1099 17.206 15.1912 16.7835C15.2708 16.3627 15.3008 15.5582 15.5979 14.8068C14.3054 13.951 13.8157 14.4284 12.6382 13.7406L12.4331 13.6416C12.4331 13.6416 11.961 14.0306 11.7347 14.0748C10.7216 15.3513 9.88703 15.9224 9.74739 16.0798C9.60595 16.2354 9.49987 16.6915 9.16923 16.8153C7.94575 17.2202 7.39235 18.0865 5.8294 18.8468C5.50936 19.0094 5.18052 19.3489 5.13808 19.4426C5.09388 19.5363 5.09388 19.7025 5.00192 19.821C4.90824 19.9377 4.68544 20.3602 4.68544 20.5777C4.68544 20.7934 4.97716 21.3769 4.75968 21.4812C4.5422 21.5873 3.79964 21.5501 3.59452 20.7934C3.3894 20.0384 3.61928 20.1675 3.3894 19.5663C3.16132 18.9652 3.26032 18.5497 3.3894 18.3464C3.52024 18.1413 4.35652 18.3393 4.46792 18.4949C4.52452 18.5568 4.56692 18.5992 4.56692 18.5992C4.56692 18.5992 5.51636 17.9963 5.90356 17.6162C6.29252 17.2361 7.02804 16.2565 8.52735 15.5139C8.52735 15.5139 8.96583 14.515 9.66067 13.5974C9.71723 13.5213 9.77735 13.4453 9.83747 13.3711C9.74199 13.3887 9.64651 13.4047 9.55103 13.4205C4.27884 14.2941 0.224681 14.2641 0.00896125 13.2492C-0.203199 12.2502 3.3736 10.6112 8.42491 9.2781C8.50447 9.40362 8.59995 9.5433 8.71487 9.6989C8.73255 9.72542 8.75023 9.75018 8.76791 9.77494C4.811 10.7527 2.00156 11.7622 2.10056 12.2308C2.20488 12.7205 5.46692 12.4606 9.76683 11.6632C9.83579 11.6509 9.90651 11.6385 9.97547 11.6243C10.6632 11.4953 11.3758 11.3538 12.106 11.1982C12.571 11.0992 13.0289 10.9984 13.4745 10.8977C13.5434 10.8817 13.6124 10.8658 13.6795 10.8499C18.3154 9.78198 21.7773 8.59738 21.6676 8.07758C21.5704 7.62142 18.7539 7.81414 14.9083 8.48246C14.9649 8.40642 15.0268 8.3251 15.0922 8.23846L15.1895 8.10938C15.1948 8.10406 15.2177 8.0917 15.2407 8.0811C15.3451 8.02982 15.4547 7.96442 15.5749 7.81238C20.2903 7.12282 23.7911 7.21478 23.9909 8.15714C24.2101 9.18442 20.4406 10.88 15.1842 12.2308Z" fill="white"/>
</g>
<defs>
<clipPath id="clip0_943_13558">
<rect width="24" height="24" fill="white"/>
</clipPath>
</defs>
</svg>
